<svg width="36" height="36" viewBox="0 0 36 36" fill="none" xmlns="http://www.w3.org/2000/svg">
<rect x="1.14" y="1.77002" width="33" height="33" rx="16.5" stroke="white" stroke-opacity="0.7" stroke-width="2"/>
<path d="M21.5414 9.77002C21.2204 9.77002 19.9199 9.77002 17.64 9.77002H13.7386C12.4326 9.80322 11.348 10.2515 10.4847 11.1147C9.62144 11.978 9.1732 13.0627 9.14 14.3687V22.1714C9.1732 23.4774 9.62144 24.562 10.4847 25.4253C11.348 26.2886 12.4326 26.7368 13.7386 26.77H21.5414C22.8474 26.7368 23.932 26.2886 24.7953 25.4253C25.6586 24.562 26.1068 23.4774 26.14 22.1714V14.3687C26.1068 13.0627 25.6586 11.978 24.7953 11.1147C23.932 10.2515 22.8474 9.80322 21.5414 9.77002ZM24.7621 22.1714C24.7399 23.09 24.4273 23.8509 23.8241 24.4541C23.2209 25.0573 22.46 25.37 21.5414 25.3921H13.7386C12.82 25.37 12.0591 25.0573 11.4559 24.4541C10.8527 23.8509 10.5401 23.09 10.5179 22.1714V14.3687C10.5401 13.45 10.8527 12.6891 11.4559 12.0859C12.0591 11.4827 12.82 11.1701 13.7386 11.1479H21.5414C22.46 11.1701 23.2209 11.4827 23.8241 12.0859C24.4273 12.6891 24.7399 13.45 24.7621 14.3687V22.1714ZM21.4418 17.6724C21.32 16.8423 20.9631 16.1312 20.371 15.5391C19.7788 14.9469 19.0677 14.59 18.2377 14.4683C17.8614 14.4129 17.4851 14.4129 17.1087 14.4683C16.6107 14.5457 16.1459 14.7118 15.7142 14.9663C15.2826 15.2209 14.9146 15.5529 14.6102 15.9624C14.3059 16.3719 14.0928 16.8201 13.9711 17.3071C13.8493 17.7941 13.8272 18.2894 13.9046 18.793C13.9821 19.2965 14.1481 19.7642 14.4027 20.1958C14.6573 20.6274 14.9893 20.9927 15.3988 21.2915C15.7308 21.5461 16.0905 21.737 16.4779 21.8643C16.8653 21.9915 17.2637 22.0552 17.6732 22.0552C17.8614 22.0552 18.0495 22.0386 18.2377 22.0054C18.7468 21.9279 19.2144 21.7619 19.6405 21.5073C20.0666 21.2528 20.4318 20.918 20.7362 20.5029C21.0406 20.0879 21.2536 19.6396 21.3754 19.1582C21.4971 18.6768 21.5192 18.1815 21.4418 17.6724ZM18.0384 20.644C17.7064 20.6994 17.3854 20.6883 17.0755 20.6108C16.7657 20.5334 16.4807 20.395 16.2206 20.1958C15.9605 19.9966 15.7474 19.7614 15.5814 19.4902C15.4154 19.2191 15.3075 18.9202 15.2577 18.5938C15.2079 18.2673 15.2217 17.9491 15.2992 17.6392C15.3767 17.3293 15.515 17.0443 15.7142 16.7842C15.9134 16.5241 16.1486 16.311 16.4198 16.145C16.6909 15.979 16.987 15.8739 17.308 15.8296C17.4297 15.8075 17.5515 15.7964 17.6732 15.7964C17.7949 15.7964 17.9167 15.8075 18.0384 15.8296C18.5808 15.9181 19.0345 16.145 19.3998 16.5103C19.765 16.8755 19.9919 17.3293 20.0804 17.8716C20.169 18.5578 20.0196 19.1637 19.6322 19.6895C19.2448 20.2152 18.7136 20.5334 18.0384 20.644ZM22.4212 13.4888C22.2884 13.356 22.128 13.2896 21.9398 13.2896C21.7517 13.2896 21.5912 13.356 21.4584 13.4888C21.3255 13.6216 21.2591 13.7821 21.2591 13.9702C21.2591 14.1584 21.3255 14.3188 21.4584 14.4517C21.5912 14.5845 21.7517 14.6509 21.9398 14.6509C22.128 14.6509 22.2884 14.5845 22.4212 14.4517C22.5541 14.3188 22.6205 14.1584 22.6205 13.9702C22.6205 13.7821 22.5541 13.6216 22.4212 13.4888Z" fill="white" fill-opacity="0.7"/>
</svg>
