<svg width="36" height="36" viewBox="0 0 36 36" fill="none" xmlns="http://www.w3.org/2000/svg">
<rect x="1.5" y="1.77002" width="33" height="33" rx="16.5" stroke="white" stroke-opacity="0.7" stroke-width="2"/>
<path d="M26.417 23.1714C26.3949 23.1271 26.3783 23.0939 26.3672 23.0718C26.0684 22.5405 25.5039 21.8875 24.6738 21.1128L24.624 21.0796C24.2477 20.7144 24.0098 20.4709 23.9102 20.3491C23.722 20.1167 23.6777 19.8787 23.7774 19.6353C23.8548 19.4471 24.1204 19.0597 24.5742 18.4731L25.1553 17.7261C26.1735 16.3647 26.6162 15.4959 26.4834 15.1196L26.4336 15.0366C26.4004 14.9813 26.3091 14.9315 26.1597 14.8872C26.0103 14.8429 25.8193 14.8374 25.5869 14.8706L23.0469 14.8872C23.0026 14.8651 22.9417 14.8651 22.8643 14.8872L22.7481 14.9038L22.665 14.9536C22.6429 14.9757 22.6125 15.009 22.5737 15.0532C22.535 15.0975 22.5046 15.1473 22.4824 15.2026C22.2057 15.922 21.8903 16.5861 21.5361 17.1948C21.3148 17.5601 21.1128 17.8783 20.9302 18.1494C20.7476 18.4206 20.5954 18.6198 20.4736 18.7471C20.3519 18.8743 20.2412 18.9767 20.1416 19.0542C20.042 19.1317 19.9645 19.1649 19.9092 19.1538L19.7598 19.104C19.6712 19.0597 19.6021 18.9906 19.5523 18.8965C19.5024 18.8024 19.4692 18.6862 19.4526 18.5479C19.436 18.4095 19.4277 18.2905 19.4277 18.1909C19.4277 18.0913 19.4277 17.9474 19.4277 17.7593L19.4443 17.394C19.4443 17.1727 19.4443 16.9292 19.4443 16.6636L19.4775 15.5513C19.4775 15.3853 19.4692 15.2524 19.4526 15.1528C19.436 15.0532 19.4056 14.9591 19.3613 14.8706C19.3171 14.7821 19.2562 14.7101 19.1787 14.6548C19.1012 14.5994 19.0016 14.5607 18.8799 14.5386C18.57 14.4611 18.1716 14.4224 17.6846 14.4224C16.5889 14.4113 15.8861 14.4832 15.5762 14.6382C15.4544 14.7046 15.341 14.7959 15.2358 14.9121C15.1307 15.0283 15.1169 15.092 15.1943 15.103C15.5485 15.1584 15.7975 15.2856 15.9414 15.4849L15.9912 15.6011C16.0355 15.6785 16.0798 15.8141 16.124 16.0078C16.1683 16.2015 16.196 16.4146 16.207 16.647C16.2292 17.0786 16.2264 17.4494 16.1987 17.7593C16.1711 18.0692 16.1434 18.3071 16.1157 18.4731C16.0881 18.6392 16.0493 18.7775 15.9995 18.8882C15.9497 18.9989 15.9137 19.0653 15.8916 19.0874C15.8695 19.1095 15.8529 19.1206 15.8418 19.1206C15.7643 19.1538 15.6841 19.1704 15.6011 19.1704C15.5181 19.1704 15.4185 19.1289 15.3023 19.0459C15.186 18.9629 15.0643 18.8494 14.937 18.7056C14.8097 18.5617 14.6659 18.3597 14.5054 18.0996C14.3449 17.8395 14.1816 17.5324 14.0156 17.1782L13.8662 16.9292C13.7777 16.7632 13.6587 16.5225 13.5093 16.207C13.3599 15.8916 13.2243 15.5845 13.1025 15.2856C13.0583 15.1639 12.9863 15.0698 12.8867 15.0034L12.8535 14.9702C12.8203 14.9481 12.7705 14.9232 12.7041 14.8955C12.6377 14.8678 12.5713 14.8485 12.5049 14.8374L10.0811 14.854C9.8265 14.854 9.65495 14.9149 9.56641 15.0366L9.53321 15.0864C9.52214 15.1086 9.51384 15.1528 9.50831 15.2192C9.50277 15.2856 9.52214 15.3687 9.56641 15.4683C9.92058 16.2983 10.3052 17.1007 10.7202 17.8755C11.1353 18.6502 11.495 19.2728 11.7993 19.7432C12.1037 20.2135 12.4163 20.659 12.7373 21.0796C13.0583 21.5002 13.2713 21.7686 13.3765 21.8848C13.4816 22.001 13.5619 22.0868 13.6172 22.1421L13.833 22.3579C13.9769 22.5018 14.1872 22.6733 14.4639 22.8726C14.7406 23.0718 15.0449 23.2655 15.377 23.4536C15.709 23.6418 16.0964 23.7967 16.5391 23.9185C16.9818 24.0402 17.4134 24.09 17.834 24.0679H18.8467C19.057 24.0457 19.2119 23.9793 19.3115 23.8687L19.3447 23.8354C19.3779 23.7912 19.4028 23.7331 19.4194 23.6611C19.436 23.5892 19.4443 23.509 19.4443 23.4204C19.4443 23.1659 19.4665 22.9362 19.5107 22.7314C19.555 22.5267 19.6048 22.3745 19.6602 22.2749C19.7155 22.1753 19.7791 22.0895 19.8511 22.0176C19.923 21.9456 19.9701 21.9041 19.9922 21.8931L20.0752 21.8599C20.208 21.8045 20.3713 21.846 20.5649 21.9844C20.7586 22.1227 20.9385 22.2943 21.1045 22.499C21.2705 22.7038 21.4725 22.9334 21.7105 23.188C21.9484 23.4425 22.1559 23.6307 22.333 23.7524L22.5156 23.8687C22.6263 23.9351 22.7757 23.9987 22.9639 24.0596C23.152 24.1204 23.318 24.1343 23.4619 24.1011L25.7363 24.0679C25.9577 24.0679 26.1292 24.0319 26.251 23.96C26.3727 23.888 26.4474 23.8078 26.4751 23.7192C26.5028 23.6307 26.5055 23.5283 26.4834 23.4121C26.4613 23.2959 26.4391 23.2157 26.417 23.1714Z" fill="white" fill-opacity="0.7"/>
</svg>
