<svg width="41" height="41" viewBox="0 0 41 41" fill="none" xmlns="http://www.w3.org/2000/svg">
<path d="M40.3047 19.5728C40.2266 19.5728 39.9141 19.5728 39.3672 19.5728H38.3906V10.7447C38.3646 9.65094 37.9935 8.74599 37.2773 8.02985C36.5612 7.3137 35.6562 6.94261 34.5625 6.91656H31.9453L29.2891 2.11188C29.0807 1.7473 28.8008 1.46083 28.4492 1.2525C28.0977 1.04417 27.7135 0.940002 27.2969 0.940002C26.8802 0.940002 26.5026 1.03115 26.1641 1.21344L15.9688 6.91656H4.5625C3.46875 6.94261 2.5638 7.3137 1.84766 8.02985C1.13151 8.74599 0.760417 9.65094 0.734375 10.7447V37.1119C0.760417 38.1796 1.13151 39.078 1.84766 39.8072C2.5638 40.5364 3.46875 40.914 4.5625 40.94H34.5625C35.6562 40.914 36.5612 40.5364 37.2773 39.8072C37.9935 39.078 38.3646 38.1796 38.3906 37.1119V29.3775H40.3047V19.5728ZM34.5625 8.44C35.1615 8.46605 35.6693 8.66787 36.0859 9.04547C36.5026 9.42307 36.75 9.89834 36.8281 10.4713H33.9375L32.8047 8.44H34.5625ZM26.9062 2.58063C27.0885 2.47646 27.2839 2.45042 27.4922 2.5025C27.7005 2.55458 27.8568 2.67177 27.9609 2.85406L32.1797 10.4713H12.6875L26.9062 2.58063ZM36.8672 37.1119C36.8411 37.7629 36.6133 38.3033 36.1836 38.733C35.7539 39.1627 35.2135 39.3905 34.5625 39.4166H4.5625C3.91146 39.3905 3.36458 39.1627 2.92188 38.733C2.47917 38.3033 2.25781 37.7629 2.25781 37.1119V10.7447C2.25781 10.0936 2.47917 9.55328 2.92188 9.1236C3.36458 8.69391 3.91146 8.46605 4.5625 8.44H13.1953L9.52344 10.4713H5.03125C4.82292 10.4973 4.64714 10.5819 4.50391 10.7252C4.36068 10.8684 4.28906 11.0442 4.28906 11.2525C4.28906 11.4608 4.36068 11.6431 4.50391 11.7994C4.64714 11.9556 4.82292 12.0338 5.03125 12.0338H36.8672V19.5728H31.2422C29.9141 19.5989 28.8008 20.0611 27.9023 20.9595C27.0039 21.858 26.5417 22.9713 26.5156 24.2994V24.6509C26.5417 25.9791 27.0039 27.0858 27.9023 27.9713C28.8008 28.8567 29.9141 29.3254 31.2422 29.3775H36.8672V37.1119ZM38.7812 27.815C38.7552 27.815 38.6901 27.815 38.5859 27.815H31.2422C30.3307 27.789 29.5755 27.4765 28.9766 26.8775C28.3776 26.2785 28.0651 25.5364 28.0391 24.6509V24.2994C28.0651 23.3879 28.3776 22.6327 28.9766 22.0338C29.5755 21.4348 30.3307 21.1223 31.2422 21.0963H38.7812V27.815ZM33.5859 24.5338C33.5859 25.0025 33.4232 25.3996 33.0977 25.7252C32.7721 26.0507 32.3685 26.2134 31.8867 26.2134C31.4049 26.2134 31.0078 26.0507 30.6953 25.7252C30.3828 25.3996 30.2266 24.996 30.2266 24.5142C30.2266 24.0324 30.3828 23.6353 30.6953 23.3228C31.0078 23.0103 31.4049 22.8541 31.8867 22.8541C32.3685 22.8541 32.7721 23.0103 33.0977 23.3228C33.4232 23.6353 33.5859 24.039 33.5859 24.5338Z" fill="#06294E"/>
</svg>
