<svg width="41" height="41" viewBox="0 0 41 41" fill="none" xmlns="http://www.w3.org/2000/svg">
<path d="M30.6953 11.7994C30.3307 11.4088 29.888 11.2134 29.3672 11.2134H28.4297L28.6641 7.38531C28.7161 6.57802 28.612 5.79677 28.3516 5.04156C28.0911 4.28636 27.681 3.60927 27.1211 3.01031C26.5612 2.41136 25.9167 1.95563 25.1875 1.64313C24.4583 1.33063 23.6771 1.17438 22.8438 1.17438H18.1953C17.362 1.17438 16.5807 1.33063 15.8516 1.64313C15.1224 1.95563 14.4779 2.41136 13.918 3.01031C13.3581 3.60927 12.9479 4.28636 12.6875 5.04156C12.4271 5.79677 12.3099 6.57802 12.3359 7.38531L12.6094 11.2134H11.5938C11.0729 11.2134 10.6302 11.4088 10.2656 11.7994C9.90104 12.19 9.74479 12.6588 9.79688 13.2056L10.0703 16.7213C10.1224 17.0858 10.2526 17.4048 10.4609 17.6783C10.6693 17.9517 10.9427 18.1535 11.2812 18.2838V21.565C11.2812 21.7994 11.3594 21.9882 11.5156 22.1314C11.6719 22.2746 11.8607 22.3463 12.082 22.3463C12.3034 22.3463 12.4857 22.2746 12.6289 22.1314C12.7721 21.9882 12.8568 21.7994 12.8828 21.565V18.4009H13.0781C13.2344 19.5989 13.6445 20.6926 14.3086 21.6822C14.9727 22.6718 15.8385 23.466 16.9062 24.065C18.0521 24.664 19.2565 24.9634 20.5195 24.9634C21.7826 24.9634 22.987 24.664 24.1328 24.065C25.2266 23.44 26.099 22.6327 26.75 21.6431C27.2969 21.591 27.8047 21.4348 28.2734 21.1744C29.3932 20.4452 30.1159 19.5598 30.4414 18.5181C30.7669 17.4765 30.9167 16.8775 30.8906 16.7213L31.1641 13.2056C31.2161 12.6588 31.0599 12.19 30.6953 11.7994ZM11.9062 16.7994C11.776 16.7733 11.6979 16.7082 11.6719 16.6041L11.3594 13.0494C11.3594 12.9713 11.3789 12.9127 11.418 12.8736C11.457 12.8345 11.5156 12.815 11.5938 12.815H12.7266L12.9609 16.7994H11.9062ZM13.9375 7.30719C13.8854 6.08323 14.276 5.02203 15.1094 4.1236C15.9427 3.22516 16.9714 2.77594 18.1953 2.77594H23.1562L21.9062 6.05719C21.8542 6.31761 21.2552 6.89052 20.1094 7.77594C18.9635 8.66136 16.9583 9.28636 14.0938 9.65094L13.9375 7.30719ZM26.3984 17.8541C26.3464 18.6353 26.1641 19.3645 25.8516 20.0416C25.1484 19.9634 24.3672 19.716 23.5078 19.2994C23.5339 19.1431 23.5469 18.9999 23.5469 18.8697C23.5208 18.2968 23.3255 17.8215 22.9609 17.4439C22.5964 17.0663 22.1276 16.8775 21.5547 16.8775C20.9818 16.8775 20.513 17.0663 20.1484 17.4439C19.7839 17.8215 19.6016 18.2968 19.6016 18.8697C19.6016 19.4426 19.7839 19.9114 20.1484 20.2759C20.513 20.6405 20.9818 20.8358 21.5547 20.8619C21.9193 20.8619 22.2578 20.7707 22.5703 20.5884C23.3776 21.0051 24.1458 21.3046 24.875 21.4869C24.4323 21.9556 23.9245 22.3463 23.3516 22.6588C22.4661 23.1535 21.5221 23.4009 20.5195 23.4009C19.5169 23.4009 18.5664 23.1535 17.668 22.6588C16.7695 22.164 16.0599 21.4999 15.5391 20.6666C15.0182 19.8332 14.7188 18.8957 14.6406 17.8541L14.2109 11.2525C16.4245 11.0181 18.1888 10.5754 19.5039 9.92438C20.819 9.27334 21.763 8.63531 22.3359 8.01031C22.6745 8.40094 23.1432 8.73948 23.7422 9.02594C24.3672 9.36448 25.4219 9.71604 26.9062 10.0806L26.3984 17.8541ZM21.9453 18.8697C21.9193 19.1041 21.7891 19.2213 21.5547 19.2213C21.3203 19.2213 21.2031 19.1041 21.2031 18.8697C21.2031 18.6353 21.3203 18.5181 21.5547 18.5181C21.7891 18.5181 21.9193 18.6353 21.9453 18.8697ZM27.1016 7.30719C27.1016 7.35927 27.0885 7.55458 27.0625 7.89313L27.0234 8.47906C26.2943 8.29677 25.7279 8.13401 25.3242 7.99078C24.9206 7.84755 24.6276 7.72386 24.4453 7.61969C24.0286 7.38531 23.7487 7.19 23.6055 7.03375C23.4622 6.8775 23.3906 6.76031 23.3906 6.68219L24.7188 3.16656C25.1615 3.40094 25.5781 3.71344 25.9688 4.10406C26.776 5.01552 27.1536 6.08323 27.1016 7.30719ZM27.6875 19.69C27.8177 19.2733 27.9089 18.8436 27.9609 18.4009H28.7812C28.5469 18.9218 28.1823 19.3515 27.6875 19.69ZM29.2891 16.6041C29.263 16.7082 29.1849 16.7733 29.0547 16.7994H28.0781L28.3125 12.815H29.3672C29.4453 12.815 29.5039 12.8345 29.543 12.8736C29.582 12.9127 29.6016 12.9713 29.6016 13.0494L29.2891 16.6041ZM40.5 39.7681C40.474 39.5858 40.3438 38.8827 40.1094 37.6588L39.7188 35.5103C39.5104 34.3124 39.1328 33.1861 38.5859 32.1314C38.0391 31.0767 37.3359 30.1197 36.4766 29.2603C35.6172 28.4009 34.6667 27.6978 33.625 27.1509C32.5833 26.6041 31.4766 26.2265 30.3047 26.0181C29.5755 25.8619 28.8464 25.7838 28.1172 25.7838H25.7734C25.5651 25.7838 25.3828 25.8619 25.2266 26.0181L20.5391 30.7056L15.8125 26.0181C15.6562 25.8619 15.474 25.7838 15.2656 25.7838H12.9219C12.1927 25.7838 11.4635 25.8619 10.7344 26.0181C9.5625 26.2265 8.45573 26.6041 7.41406 27.1509C6.3724 27.6978 5.42188 28.4009 4.5625 29.2603C3.70312 30.1197 3 31.0767 2.45312 32.1314C1.90625 33.1861 1.52865 34.3124 1.32031 35.5103L0.539062 39.7681C0.486979 40.0025 0.539062 40.2173 0.695312 40.4127C0.851562 40.608 1.0599 40.7056 1.32031 40.7056H39.7188C39.9792 40.7056 40.1875 40.608 40.3438 40.4127C40.5 40.2173 40.5521 40.0025 40.5 39.7681ZM21.0859 32.4244C21.2943 32.216 22.1276 31.3697 23.5859 29.8853L26.125 27.3853H28.3906L20.5391 35.2759L19.3672 34.1431L21.0859 32.4244ZM12.9219 27.3853C13.026 27.3853 13.3646 27.3853 13.9375 27.3853H14.9141L19.4062 31.8384L18.2344 33.0103L12.6484 27.3853H12.9219ZM2.25781 39.1041C2.28385 38.9739 2.38802 38.427 2.57031 37.4634L2.88281 35.7838C3.27344 33.7525 4.16536 32.0142 5.55859 30.5689C6.95182 29.1236 8.63802 28.1535 10.6172 27.6588L20.0312 37.0338C20.1615 37.1379 20.3242 37.19 20.5195 37.19C20.7148 37.19 20.8776 37.1379 21.0078 37.0338L30.4219 27.6588C32.401 28.1535 34.0872 29.1236 35.4805 30.5689C36.8737 32.0142 37.7656 33.7525 38.1562 35.7838L38.7812 39.1041H2.25781ZM12.0625 23.1666C11.8542 23.1666 11.6719 23.2447 11.5156 23.4009C11.3594 23.5572 11.2812 23.7395 11.2812 23.9478V24.2994C11.2812 24.5077 11.3594 24.69 11.5156 24.8463C11.6719 25.0025 11.8607 25.0806 12.082 25.0806C12.3034 25.0806 12.4857 25.0025 12.6289 24.8463C12.7721 24.69 12.8568 24.5077 12.8828 24.2994V23.9478C12.8568 23.7395 12.7721 23.5572 12.6289 23.4009C12.4857 23.2447 12.2969 23.1666 12.0625 23.1666Z" fill="#06294E"/>
</svg>
