<svg width="41" height="41" viewBox="0 0 41 41" fill="none" xmlns="http://www.w3.org/2000/svg">
<path d="M20.5 0.940002C14.849 1.09625 10.1419 3.05589 6.37891 6.81891C2.61589 10.5819 0.65625 15.289 0.5 20.94C0.65625 26.591 2.61589 31.2981 6.37891 35.0611C10.1419 38.8241 14.849 40.7838 20.5 40.94C26.151 40.7838 30.8581 38.8241 34.6211 35.0611C38.3841 31.2981 40.3438 26.591 40.5 20.94C40.3438 15.289 38.3841 10.5819 34.6211 6.81891C30.8581 3.05589 26.151 1.09625 20.5 0.940002ZM20.5 39.6509C15.2135 39.5207 10.806 37.6913 7.27734 34.1627C3.7487 30.634 1.91927 26.2265 1.78906 20.94C1.91927 15.6535 3.7487 11.246 7.27734 7.71735C10.806 4.1887 15.2135 2.35927 20.5 2.22906C25.7865 2.35927 30.194 4.1887 33.7227 7.71735C37.2513 11.246 39.0807 15.6535 39.2109 20.94C39.0807 26.2265 37.2513 30.634 33.7227 34.1627C30.194 37.6913 25.7865 39.5207 20.5 39.6509ZM20.5 6.09625C16.3073 6.20042 12.8112 7.65224 10.0117 10.4517C7.21224 13.2512 5.76042 16.7473 5.65625 20.94C5.76042 25.1327 7.21224 28.6288 10.0117 31.4283C12.8112 34.2278 16.3073 35.6796 20.5 35.7838C24.6927 35.6796 28.1888 34.2278 30.9883 31.4283C33.7878 28.6288 35.2396 25.1327 35.3438 20.94C35.2396 16.7473 33.7878 13.2512 30.9883 10.4517C28.1888 7.65224 24.6927 6.20042 20.5 6.09625ZM30.5 30.0416C30.4479 29.9895 30.2266 29.7681 29.8359 29.3775L29.1719 28.7134L28.2734 29.6119L29.6016 30.94C28.4557 31.9817 27.1667 32.8085 25.7344 33.4205C24.3021 34.0325 22.7786 34.3775 21.1641 34.4556V32.5416H19.8359V34.4556C18.2214 34.3775 16.6979 34.0325 15.2656 33.4205C13.8333 32.8085 12.5443 31.9817 11.3984 30.94L12.7266 29.6119L11.8281 28.7134L10.5 30.0416C9.45833 28.8957 8.63151 27.6067 8.01953 26.1744C7.40755 24.7421 7.0625 23.2186 6.98438 21.6041H8.89844V20.315H6.98438C7.0625 18.6744 7.40755 17.1379 8.01953 15.7056C8.63151 14.2733 9.45833 12.9843 10.5 11.8384L11.8281 13.2056L12.7266 12.2681L11.3984 10.94C12.5443 9.89834 13.8333 9.07151 15.2656 8.45953C16.6979 7.84755 18.2344 7.5025 19.875 7.42438V9.33844H21.1641V7.42438C22.7786 7.5025 24.3021 7.84755 25.7344 8.45953C27.1667 9.07151 28.4557 9.89834 29.6016 10.94L28.2734 12.2681L29.1719 13.1666L30.5 11.8384C31.5417 12.9843 32.3685 14.2733 32.9805 15.7056C33.5924 17.1379 33.9375 18.6614 34.0156 20.2759H32.1016V21.6041H34.0156C33.9375 23.2186 33.5924 24.7421 32.9805 26.1744C32.3685 27.6067 31.5417 28.8957 30.5 30.0416ZM21.1641 19.1041C21.1641 18.8176 21.1641 17.6197 21.1641 15.5103V11.9166H19.8359V19.1041C19.2891 19.3384 18.8984 19.7291 18.6641 20.2759H14.0547V21.6041H18.6641C18.8203 21.9686 19.0612 22.2681 19.3867 22.5025C19.7122 22.7369 20.0833 22.8671 20.5 22.8931C21.0469 22.8671 21.5026 22.6718 21.8672 22.3072C22.2318 21.9426 22.4271 21.4869 22.4531 20.94C22.4271 20.5233 22.2969 20.1522 22.0625 19.8267C21.8281 19.5012 21.5286 19.2603 21.1641 19.1041ZM20.5 21.6041C20.3177 21.578 20.168 21.5064 20.0508 21.3892C19.9336 21.272 19.875 21.1223 19.875 20.94C19.875 20.7577 19.9336 20.608 20.0508 20.4908C20.168 20.3736 20.3177 20.315 20.5 20.315C20.6823 20.315 20.832 20.3736 20.9492 20.4908C21.0664 20.608 21.125 20.7577 21.125 20.94C21.125 21.1223 21.0664 21.272 20.9492 21.3892C20.832 21.5064 20.6823 21.578 20.5 21.6041Z" fill="#06294E"/>
</svg>
