<svg width="41" height="41" viewBox="0 0 41 41" fill="none" xmlns="http://www.w3.org/2000/svg">
<path d="M26.4375 0.940002C25.5521 0.940002 21.9583 0.940002 15.6562 0.940002H4.83594V40.94H36.1641V10.6666L26.4375 0.940002ZM26.8281 3.20563C27.1146 3.51813 28.2995 4.70302 30.3828 6.76031L33.8984 10.2759H26.8281V3.20563ZM6.16406 39.6119C6.16406 38.0494 6.16406 31.8254 6.16406 20.94V2.26813H25.5V11.6041H34.8359V39.6119H6.16406ZM11.5156 12.2681C11.75 12.2681 12.7396 12.2681 14.4844 12.2681H17.4922C17.7005 12.2681 17.8633 12.203 17.9805 12.0728C18.0977 11.9426 18.1562 11.7864 18.1562 11.6041C18.1562 11.4218 18.0977 11.2655 17.9805 11.1353C17.8633 11.0051 17.7005 10.94 17.4922 10.94H11.5156C11.3073 10.94 11.1445 11.0051 11.0273 11.1353C10.9102 11.2655 10.8516 11.4218 10.8516 11.6041C10.8516 11.7864 10.9102 11.9426 11.0273 12.0728C11.1445 12.203 11.3073 12.2681 11.5156 12.2681ZM11.5156 17.6197C11.6458 17.6197 12.1927 17.6197 13.1562 17.6197H14.8359C15.0182 17.5936 15.1745 17.522 15.3047 17.4048C15.4349 17.2877 15.5 17.1314 15.5 16.9361C15.5 16.7408 15.4349 16.5845 15.3047 16.4673C15.1745 16.3502 15.0182 16.2916 14.8359 16.2916H11.5156C11.3073 16.2916 11.1445 16.3502 11.0273 16.4673C10.9102 16.5845 10.8516 16.7408 10.8516 16.9361C10.8516 17.1314 10.9102 17.2877 11.0273 17.4048C11.1445 17.522 11.3073 17.5936 11.5156 17.6197ZM21.5156 17.6197C21.6979 17.6197 22.4661 17.6197 23.8203 17.6197H26.1641C26.3464 17.5936 26.5026 17.522 26.6328 17.4048C26.763 17.2877 26.8281 17.1314 26.8281 16.9361C26.8281 16.7408 26.763 16.5845 26.6328 16.4673C26.5026 16.3502 26.3464 16.2916 26.1641 16.2916H21.5156C21.3073 16.2916 21.1445 16.3502 21.0273 16.4673C20.9102 16.5845 20.8516 16.7408 20.8516 16.9361C20.8516 17.1314 20.9102 17.2877 21.0273 17.4048C21.1445 17.522 21.3073 17.5936 21.5156 17.6197ZM17.6875 16.4869C17.5573 16.6171 17.4922 16.7733 17.4922 16.9556C17.4922 17.1379 17.5573 17.2877 17.6875 17.4048C17.8177 17.522 17.974 17.5871 18.1562 17.6002C18.3385 17.6132 18.4948 17.5546 18.625 17.4244C18.7552 17.2942 18.8203 17.1379 18.8203 16.9556C18.8203 16.7733 18.7552 16.6171 18.625 16.4869C18.4948 16.3567 18.3385 16.2916 18.1562 16.2916C17.974 16.2916 17.8177 16.3567 17.6875 16.4869ZM29.4844 17.6197C29.6667 17.5936 29.8229 17.522 29.9531 17.4048C30.0833 17.2877 30.1484 17.1379 30.1484 16.9556C30.1484 16.7733 30.0833 16.6171 29.9531 16.4869C29.8229 16.3567 29.6732 16.2916 29.5039 16.2916C29.3346 16.2916 29.1849 16.3567 29.0547 16.4869C28.9245 16.6171 28.8594 16.7733 28.8594 16.9556C28.8594 17.1379 28.918 17.2877 29.0352 17.4048C29.1523 17.522 29.3021 17.5936 29.4844 17.6197ZM19.4844 21.6041C19.3021 21.6041 18.5339 21.6041 17.1797 21.6041H14.8359C14.6536 21.6041 14.4974 21.6692 14.3672 21.7994C14.237 21.9296 14.1719 22.0858 14.1719 22.2681C14.1719 22.4504 14.237 22.6067 14.3672 22.7369C14.4974 22.8671 14.6536 22.9322 14.8359 22.9322H19.4844C19.6927 22.9322 19.8555 22.8671 19.9727 22.7369C20.0898 22.6067 20.1484 22.4504 20.1484 22.2681C20.1484 22.0858 20.0898 21.9296 19.9727 21.7994C19.8555 21.6692 19.6927 21.6041 19.4844 21.6041ZM11.5156 22.9322C11.6979 22.9322 11.8542 22.8671 11.9844 22.7369C12.1146 22.6067 12.1797 22.4504 12.1797 22.2681C12.1797 22.0858 12.1146 21.9296 11.9844 21.7994C11.8542 21.6692 11.6979 21.6041 11.5156 21.6041C11.3333 21.6041 11.1771 21.6692 11.0469 21.7994C10.9167 21.9296 10.8516 22.0858 10.8516 22.2681C10.8516 22.4504 10.9167 22.6067 11.0469 22.7369C11.1771 22.8671 11.3333 22.9322 11.5156 22.9322ZM13.5859 27.6978C12.8828 28.1145 12.375 28.6483 12.0625 29.2994C11.75 29.9504 11.5547 30.6666 11.4766 31.4478L10.6562 30.7447C10.2917 30.5103 9.96615 30.5298 9.67969 30.8033C9.39323 31.0767 9.39323 31.3697 9.67969 31.6822L11.5547 33.2447C11.7891 33.427 12.0299 33.4726 12.2773 33.3814C12.5247 33.2903 12.6615 33.0884 12.6875 32.7759C12.6875 32.0468 12.7786 31.3111 12.9609 30.5689C13.1432 29.8267 13.5859 29.2603 14.2891 28.8697C14.6276 28.6353 14.6992 28.3489 14.5039 28.0103C14.3086 27.6718 14.0026 27.5676 13.5859 27.6978ZM18.0391 30.3931C17.5703 30.5494 17.1016 30.7447 16.6328 30.9791C16.1641 31.2134 15.7604 31.0311 15.4219 30.4322C15.1875 30.0936 14.901 30.022 14.5625 30.2173C14.224 30.4127 14.1198 30.7186 14.25 31.1353C14.4323 31.4739 14.6797 31.7603 14.9922 31.9947C15.3047 32.2291 15.6562 32.3658 16.0469 32.4048C16.4375 32.4439 16.8151 32.3983 17.1797 32.2681L17.9219 31.8384C18.2865 31.6301 18.5339 31.6041 18.6641 31.7603C18.9245 32.1249 19.224 32.2095 19.5625 32.0142C19.901 31.8189 19.9922 31.5129 19.8359 31.0963C19.6536 30.7838 19.3997 30.5624 19.0742 30.4322C18.7487 30.302 18.4036 30.289 18.0391 30.3931ZM31.6719 23.9478C31.5156 23.8697 31.4245 23.7916 31.3984 23.7134C31.3724 23.6353 31.3854 23.5181 31.4375 23.3619C31.5938 23.0233 31.6393 22.6718 31.5742 22.3072C31.5091 21.9426 31.3398 21.6301 31.0664 21.3697C30.793 21.1093 30.4805 20.9465 30.1289 20.8814C29.7773 20.8163 29.4323 20.8619 29.0938 21.0181C28.9375 21.0702 28.8138 21.0767 28.7227 21.0377C28.6315 20.9986 28.5599 20.914 28.5078 20.7838C28.3776 20.4192 28.1628 20.1327 27.8633 19.9244C27.5638 19.716 27.2188 19.6119 26.8281 19.6119C26.4375 19.6119 26.099 19.716 25.8125 19.9244C25.526 20.1327 25.3177 20.4192 25.1875 20.7838C25.1094 20.914 25.0312 20.9986 24.9531 21.0377C24.875 21.0767 24.7578 21.0702 24.6016 21.0181C24.237 20.8619 23.8789 20.8163 23.5273 20.8814C23.1758 20.9465 22.8633 21.1093 22.5898 21.3697C22.3164 21.6301 22.1536 21.9426 22.1016 22.3072C22.0495 22.6718 22.1016 23.0233 22.2578 23.3619C22.3099 23.5181 22.3164 23.6353 22.2773 23.7134C22.2383 23.7916 22.1536 23.8697 22.0234 23.9478C21.6589 24.078 21.3724 24.2929 21.1641 24.5923C20.9557 24.8918 20.8516 25.2304 20.8516 25.608C20.8516 25.9856 20.9557 26.3241 21.1641 26.6236C21.3724 26.9231 21.6589 27.1379 22.0234 27.2681C22.1536 27.3463 22.2383 27.4244 22.2773 27.5025C22.3164 27.5806 22.3099 27.6978 22.2578 27.8541C22.1016 28.1926 22.0495 28.5442 22.1016 28.9088C22.1536 29.2733 22.3164 29.5858 22.5898 29.8463C22.8633 30.1067 23.1693 30.2759 23.5078 30.3541V38.5572L26.8281 35.1978L30.1875 38.5572V30.315C30.526 30.2629 30.8255 30.1067 31.0859 29.8463C31.3464 29.5858 31.5091 29.2733 31.5742 28.9088C31.6393 28.5442 31.5938 28.1926 31.4375 27.8541C31.3854 27.6978 31.3724 27.5806 31.3984 27.5025C31.4245 27.4244 31.5156 27.3463 31.6719 27.2681C32.0365 27.1379 32.3229 26.9231 32.5312 26.6236C32.7396 26.3241 32.8438 25.9856 32.8438 25.608C32.8438 25.2304 32.7396 24.8918 32.5312 24.5923C32.3229 24.2929 32.0365 24.078 31.6719 23.9478ZM26.8281 33.3228C26.75 33.4009 26.4245 33.7395 25.8516 34.3384L24.8359 35.315V30.1588L24.9531 30.1978L25.0703 30.2759C25.1224 30.302 25.1615 30.3541 25.1875 30.4322C25.3177 30.7968 25.526 31.0832 25.8125 31.2916C26.099 31.4999 26.4375 31.6041 26.8281 31.6041C27.2188 31.6041 27.5638 31.4999 27.8633 31.2916C28.1628 31.0832 28.3776 30.7968 28.5078 30.4322C28.5339 30.3541 28.5664 30.2955 28.6055 30.2564C28.6445 30.2173 28.6901 30.1978 28.7422 30.1978L28.8203 30.1588V35.315L26.8281 33.3228ZM31.2031 26.0181C30.7344 26.2004 30.4023 26.5259 30.207 26.9947C30.0117 27.4634 30.0182 27.9452 30.2266 28.44C30.2786 28.5442 30.2852 28.6418 30.2461 28.733C30.207 28.8241 30.1615 28.8957 30.1094 28.9478C30.0573 28.9999 29.9401 29.0259 29.7578 29.0259L29.2891 28.8697L28.9375 28.8306L28.5859 28.8697C28.4557 28.8697 28.3385 28.8957 28.2344 28.9478L27.8828 29.1431C27.8047 29.1952 27.7266 29.2603 27.6484 29.3384L27.6094 29.3775C27.4531 29.5598 27.3229 29.7681 27.2188 30.0025C27.1927 30.1067 27.1341 30.1783 27.043 30.2173C26.9518 30.2564 26.8802 30.2759 26.8281 30.2759C26.776 30.2759 26.7109 30.2564 26.6328 30.2173C26.5547 30.1783 26.4896 30.1067 26.4375 30.0025C26.3594 29.7681 26.2292 29.5598 26.0469 29.3775V29.3384C25.9688 29.2603 25.8776 29.1952 25.7734 29.1431L25.4609 28.9478H25.4219C25.3177 28.8957 25.2135 28.8697 25.1094 28.8697L24.7578 28.8306C24.5234 28.8306 24.2891 28.8827 24.0547 28.9869L23.9375 29.0259C23.7292 29.0259 23.599 28.9869 23.5469 28.9088C23.4948 28.8827 23.4557 28.8241 23.4297 28.733C23.4036 28.6418 23.4167 28.5442 23.4688 28.44C23.6771 27.9452 23.6836 27.4634 23.4883 26.9947C23.293 26.5259 22.9479 26.2004 22.4531 26.0181C22.3229 25.966 22.2448 25.8944 22.2188 25.8033C22.1927 25.7121 22.1797 25.647 22.1797 25.608C22.1797 25.5689 22.1927 25.5038 22.2188 25.4127C22.2448 25.3215 22.3229 25.2499 22.4531 25.1978C22.9479 25.0155 23.293 24.6835 23.4883 24.2017C23.6836 23.7199 23.6771 23.2447 23.4688 22.7759C23.4167 22.6718 23.4036 22.5741 23.4297 22.483C23.4557 22.3918 23.4883 22.3267 23.5273 22.2877C23.5664 22.2486 23.625 22.216 23.7031 22.19C23.7812 22.164 23.8854 22.177 24.0156 22.2291C24.4844 22.4374 24.9596 22.4439 25.4414 22.2486C25.9232 22.0533 26.2552 21.7082 26.4375 21.2134C26.4896 21.0832 26.5547 21.0051 26.6328 20.9791C26.7109 20.953 26.776 20.94 26.8281 20.94C26.8802 20.94 26.9518 20.953 27.043 20.9791C27.1341 21.0051 27.1927 21.0832 27.2188 21.2134C27.401 21.7082 27.7331 22.0533 28.2148 22.2486C28.6966 22.4439 29.1719 22.4374 29.6406 22.2291C29.7708 22.177 29.875 22.164 29.9531 22.19C30.0312 22.216 30.0898 22.2486 30.1289 22.2877C30.168 22.3267 30.207 22.3918 30.2461 22.483C30.2852 22.5741 30.2786 22.6718 30.2266 22.7759C30.0182 23.2707 30.0117 23.7525 30.207 24.2213C30.4023 24.69 30.7344 25.0155 31.2031 25.1978C31.3333 25.2499 31.418 25.3215 31.457 25.4127C31.4961 25.5038 31.5156 25.5689 31.5156 25.608C31.5156 25.647 31.4961 25.7121 31.457 25.8033C31.418 25.8944 31.3333 25.966 31.2031 26.0181Z" fill="#06294E"/>
</svg>
