<svg width="41" height="41" viewBox="0 0 41 41" fill="none" xmlns="http://www.w3.org/2000/svg">
<path d="M33.1953 27.2291C32.1797 27.2551 31.3138 27.6262 30.5977 28.3424C29.8815 29.0585 29.5234 29.9179 29.5234 30.9205C29.5234 31.9231 29.888 32.7825 30.6172 33.4986C31.3464 34.2148 32.2188 34.5663 33.2344 34.5533C34.25 34.5403 35.0964 34.1887 35.7734 33.4986C36.4505 32.8085 36.7891 31.9426 36.7891 30.901C36.7891 29.8593 36.4505 28.9934 35.7734 28.3033C35.0964 27.6132 34.237 27.2551 33.1953 27.2291ZM33.1953 32.9322C32.6224 32.9322 32.1406 32.7369 31.75 32.3463C31.3594 31.9556 31.1641 31.4739 31.1641 30.901C31.1641 30.328 31.3594 29.8528 31.75 29.4752C32.1406 29.0976 32.6224 28.9088 33.1953 28.9088C33.7682 28.9088 34.2435 29.0976 34.6211 29.4752C34.9987 29.8528 35.1875 30.328 35.1875 30.901C35.1875 31.4739 34.9987 31.9556 34.6211 32.3463C34.2435 32.7369 33.7682 32.9322 33.1953 32.9322ZM34.1328 15.0416C33.9766 14.8853 33.7943 14.8072 33.5859 14.8072H29.4062C29.1979 14.8332 29.0156 14.9179 28.8594 15.0611C28.7031 15.2043 28.625 15.3931 28.625 15.6275V22.3072C28.625 22.5416 28.7031 22.7369 28.8594 22.8931C29.0156 23.0494 29.1979 23.1275 29.4062 23.1275H36.0469C36.2812 23.1275 36.4766 23.0494 36.6328 22.8931C36.7891 22.7369 36.8672 22.5416 36.8672 22.3072V17.8541C36.8672 17.6197 36.776 17.4114 36.5938 17.2291L34.1328 15.0416ZM35.2266 21.4869C35.0182 21.4869 34.1849 21.4869 32.7266 21.4869H30.2266V16.4478H33.2734L35.2266 18.2056V21.4869ZM13.3125 27.2291C12.2969 27.2551 11.431 27.6262 10.7148 28.3424C9.9987 29.0585 9.64062 29.9179 9.64062 30.9205C9.64062 31.9231 9.9987 32.7825 10.7148 33.4986C11.431 34.2148 12.2969 34.5663 13.3125 34.5533C14.3281 34.5403 15.181 34.1887 15.8711 33.4986C16.5612 32.8085 16.9062 31.9426 16.9062 30.901C16.9062 29.8593 16.5612 28.9934 15.8711 28.3033C15.181 27.6132 14.3281 27.2551 13.3125 27.2291ZM13.3125 32.9322C12.7396 32.9322 12.2578 32.7369 11.8672 32.3463C11.4766 31.9556 11.2812 31.4739 11.2812 30.901C11.2812 30.328 11.4766 29.8528 11.8672 29.4752C12.2578 29.0976 12.7396 28.9088 13.3125 28.9088C13.8854 28.9088 14.3607 29.0976 14.7383 29.4752C15.1159 29.8528 15.3047 30.328 15.3047 30.901C15.3047 31.4739 15.1159 31.9556 14.7383 32.3463C14.3607 32.7369 13.8854 32.9322 13.3125 32.9322ZM7.88281 28.2447C7.80469 28.2447 7.53125 28.2447 7.0625 28.2447H6.24219V26.0963C6.24219 25.8619 6.16406 25.6666 6.00781 25.5103C5.85156 25.3541 5.65625 25.276 5.42188 25.276C5.1875 25.276 4.9987 25.3541 4.85547 25.5103C4.71224 25.6666 4.6276 25.8619 4.60156 26.0963V29.065C4.6276 29.2994 4.71224 29.4882 4.85547 29.6314C4.9987 29.7747 5.1875 29.8593 5.42188 29.8853H7.88281C8.11719 29.8593 8.3125 29.7747 8.46875 29.6314C8.625 29.4882 8.70312 29.2994 8.70312 29.065C8.70312 28.8306 8.625 28.6353 8.46875 28.4791C8.3125 28.3228 8.11719 28.2447 7.88281 28.2447ZM12.0234 23.7916C11.9974 23.5832 11.9128 23.401 11.7695 23.2447C11.6263 23.0885 11.4375 22.9973 11.2031 22.9713H1.32031C1.08594 22.9973 0.890625 23.0885 0.734375 23.2447C0.578125 23.401 0.5 23.5898 0.5 23.8111C0.5 24.0325 0.578125 24.2213 0.734375 24.3775C0.890625 24.5338 1.08594 24.6119 1.32031 24.6119H11.2031C11.4375 24.6119 11.6263 24.5338 11.7695 24.3775C11.9128 24.2213 11.9974 24.026 12.0234 23.7916ZM2.96094 20.8619C3.3776 20.8619 5.03125 20.8749 7.92188 20.901L12.8438 20.94C13.0781 20.914 13.2734 20.8293 13.4297 20.6861C13.5859 20.5429 13.6641 20.3541 13.6641 20.1197C13.6641 19.8853 13.5859 19.69 13.4297 19.5338C13.2734 19.3775 13.0911 19.2994 12.8828 19.2994L3 19.2213C2.97396 19.2213 2.96094 19.2213 2.96094 19.2213C2.7526 19.2473 2.57031 19.3319 2.41406 19.4752C2.25781 19.6184 2.17969 19.8072 2.17969 20.0416C2.17969 20.276 2.2513 20.4713 2.39453 20.6275C2.53776 20.7838 2.72656 20.8619 2.96094 20.8619ZM4.64062 17.151C5.05729 17.151 6.69792 17.151 9.5625 17.151H14.5234C14.7318 17.151 14.9141 17.0728 15.0703 16.9166C15.2266 16.7603 15.3047 16.5715 15.3047 16.3502C15.3047 16.1288 15.2266 15.94 15.0703 15.7838C14.9141 15.6275 14.7318 15.5494 14.5234 15.5494H4.64062C4.40625 15.5494 4.21094 15.6275 4.05469 15.7838C3.89844 15.94 3.82031 16.1288 3.82031 16.3502C3.82031 16.5715 3.89844 16.7603 4.05469 16.9166C4.21094 17.0728 4.40625 17.151 4.64062 17.151ZM40.1875 16.0572L34.3672 11.2525C34.2109 11.1223 34.0417 11.0572 33.8594 11.0572H26.9844V8.12752C26.9844 7.89315 26.9062 7.69783 26.75 7.54158C26.5938 7.38533 26.3984 7.30721 26.1641 7.30721H5.42188C5.1875 7.30721 4.9987 7.38533 4.85547 7.54158C4.71224 7.69783 4.6276 7.89315 4.60156 8.12752V14.065C4.6276 14.2994 4.71224 14.4947 4.85547 14.651C4.9987 14.8072 5.1875 14.8853 5.42188 14.8853C5.65625 14.8853 5.85156 14.8072 6.00781 14.651C6.16406 14.4947 6.24219 14.2994 6.24219 14.065V8.94783H25.3828V28.2447H18.7031C18.4688 28.2447 18.2734 28.3228 18.1172 28.4791C17.9609 28.6353 17.8828 28.8306 17.8828 29.065C17.8828 29.2994 17.9609 29.4882 18.1172 29.6314C18.2734 29.7747 18.4688 29.8593 18.7031 29.8853H28.625C28.8594 29.8593 29.0547 29.7747 29.2109 29.6314C29.3672 29.4882 29.4453 29.2994 29.4453 29.065C29.4453 28.8306 29.3672 28.6353 29.2109 28.4791C29.0547 28.3228 28.8594 28.2447 28.625 28.2447H26.9844V12.6978H33.5469L38.8594 17.0728L38.8203 28.2447H37.9609C37.7266 28.2447 37.5378 28.3228 37.3945 28.4791C37.2513 28.6353 37.1797 28.8241 37.1797 29.0455C37.1797 29.2668 37.2513 29.4556 37.3945 29.6119C37.5378 29.7681 37.7266 29.8463 37.9609 29.8463H39.6016C39.8359 29.8463 40.0312 29.7681 40.1875 29.6119C40.3438 29.4556 40.4219 29.2734 40.4219 29.065L40.5 16.7213C40.5 16.4609 40.3958 16.2395 40.1875 16.0572Z" fill="#06294E"/>
</svg>
