<svg width="71" height="71" viewBox="0 0 71 71" fill="none" xmlns="http://www.w3.org/2000/svg">
<path d="M62.2134 11.729C61.7577 11.2733 60.0032 9.51872 56.9498 6.46533L51.6861 1.20166C51.4582 0.973793 51.1848 0.859863 50.8658 0.859863H14.7037C13.063 0.905434 11.6845 1.4751 10.5679 2.56885C9.4514 3.6626 8.89313 5.02979 8.89313 6.67041V65.0493C8.89313 66.6899 9.4514 68.0571 10.5679 69.1509C11.6845 70.2446 13.063 70.8143 14.7037 70.8599H56.6763C58.317 70.8143 59.6955 70.2446 60.8121 69.1509C61.9286 68.0571 62.5097 66.6899 62.5552 65.0493V12.5493C62.5097 12.1847 62.3957 11.9113 62.2134 11.729ZM52.0279 4.82471C52.3013 5.09814 53.3951 6.19189 55.3091 8.10596L58.522 11.3872H52.0279V4.82471ZM60.1627 65.0493C60.1627 66.0063 59.8323 66.8153 59.1714 67.4761C58.5106 68.1369 57.6789 68.4901 56.6763 68.5356H14.7037C13.7011 68.4901 12.8694 68.1369 12.2086 67.4761C11.5477 66.8153 11.2173 66.0063 11.2173 65.0493V6.67041C11.2173 5.71338 11.5477 4.90446 12.2086 4.24365C12.8694 3.58285 13.7011 3.22965 14.7037 3.18408H49.7037V12.5493C49.7037 12.8683 49.8176 13.1418 50.0455 13.3696C50.2733 13.5975 50.5468 13.7114 50.8658 13.7114H60.1627V65.0493ZM19.3521 17.1978C18.0305 17.2433 16.9367 17.6991 16.0709 18.5649C15.205 19.4308 14.772 20.5246 14.772 21.8462C14.772 23.1678 15.205 24.2729 16.0709 25.1616C16.9367 26.0503 18.0305 26.4946 19.3521 26.4946C20.6737 26.4946 21.7789 26.0503 22.6675 25.1616C23.5562 24.2729 24.0005 23.1678 24.0005 21.8462C24.0005 20.5246 23.5562 19.4308 22.6675 18.5649C21.7789 17.6991 20.6737 17.2433 19.3521 17.1978ZM19.3521 24.1704C18.7141 24.1704 18.1672 23.9539 17.7115 23.521C17.2558 23.0881 17.0279 22.5412 17.0279 21.8804C17.0279 21.2196 17.2558 20.6613 17.7115 20.2056C18.1672 19.7498 18.7255 19.522 19.3863 19.522C20.0471 19.522 20.594 19.7498 21.0269 20.2056C21.4599 20.6613 21.6763 21.2196 21.6763 21.8804C21.6763 22.5412 21.4599 23.0881 21.0269 23.521C20.594 23.9539 20.0357 24.1704 19.3521 24.1704ZM19.3521 30.0493C18.0305 30.0493 16.9367 30.4937 16.0709 31.3823C15.205 32.271 14.772 33.3761 14.772 34.6978C14.772 36.0194 15.205 37.1131 16.0709 37.979C16.9367 38.8449 18.0305 39.2778 19.3521 39.2778C20.6737 39.2778 21.7789 38.8449 22.6675 37.979C23.5562 37.1131 24.0005 36.0194 24.0005 34.6978C24.0005 33.3761 23.5562 32.271 22.6675 31.3823C21.7789 30.4937 20.6737 30.0493 19.3521 30.0493ZM19.3521 37.022C18.7141 37.022 18.1672 36.7941 17.7115 36.3384C17.2558 35.8826 17.0279 35.3244 17.0279 34.6636C17.0279 34.0028 17.2558 33.4559 17.7115 33.0229C18.1672 32.59 18.7255 32.3735 19.3863 32.3735C20.0471 32.3735 20.594 32.59 21.0269 33.0229C21.4599 33.4559 21.6763 34.0028 21.6763 34.6636C21.6763 35.3244 21.4599 35.8826 21.0269 36.3384C20.594 36.7941 20.0357 37.022 19.3521 37.022ZM19.3521 42.8325C18.0305 42.8781 16.9367 43.3452 16.0709 44.2339C15.205 45.1226 14.772 46.2277 14.772 47.5493C14.772 48.8709 15.205 49.9647 16.0709 50.8306C16.9367 51.6965 18.0305 52.1294 19.3521 52.1294C20.6737 52.1294 21.7789 51.6965 22.6675 50.8306C23.5562 49.9647 24.0005 48.8709 24.0005 47.5493C24.0005 46.2277 23.5562 45.1226 22.6675 44.2339C21.7789 43.3452 20.6737 42.8781 19.3521 42.8325ZM19.3521 49.8735C18.7141 49.828 18.1672 49.5887 17.7115 49.1558C17.2558 48.7228 17.0279 48.1759 17.0279 47.5151C17.0279 46.8543 17.2558 46.3075 17.7115 45.8745C18.1672 45.4416 18.7255 45.2251 19.3863 45.2251C20.0471 45.2251 20.594 45.4416 21.0269 45.8745C21.4599 46.3075 21.6763 46.8543 21.6763 47.5151C21.6763 48.1759 21.4599 48.7228 21.0269 49.1558C20.594 49.5887 20.0357 49.828 19.3521 49.8735ZM19.3521 55.6841C18.0305 55.7297 16.9367 56.1854 16.0709 57.0513C15.205 57.9172 14.772 59.0109 14.772 60.3325C14.772 61.6541 15.205 62.7593 16.0709 63.6479C16.9367 64.5366 18.0305 64.981 19.3521 64.981C20.6737 64.981 21.7789 64.5366 22.6675 63.6479C23.5562 62.7593 24.0005 61.6541 24.0005 60.3325C24.0005 59.0109 23.5562 57.9172 22.6675 57.0513C21.7789 56.1854 20.6737 55.7297 19.3521 55.6841ZM19.3521 62.7251C18.7141 62.6795 18.1672 62.4403 17.7115 62.0073C17.2558 61.5744 17.0279 61.0275 17.0279 60.3667C17.0279 59.7059 17.2558 59.159 17.7115 58.7261C18.1672 58.2931 18.7255 58.0767 19.3863 58.0767C20.0471 58.0767 20.594 58.2931 21.0269 58.7261C21.4599 59.159 21.6763 59.7059 21.6763 60.3667C21.6763 61.0275 21.4599 61.5744 21.0269 62.0073C20.594 62.4403 20.0357 62.6795 19.3521 62.7251ZM26.3931 23.0083C26.3931 23.0994 26.3931 23.4868 26.3931 24.1704V25.3325H56.6763V23.0083H26.3931ZM27.5552 6.67041C27.5552 6.76156 27.5552 7.14893 27.5552 7.83252V8.99463H43.8931V6.67041H27.5552ZM24.0005 11.3872C24.0005 11.4784 24.0005 11.8657 24.0005 12.5493V13.7114H47.3795V11.3872H24.0005ZM26.3931 35.8599C26.3931 35.951 26.3931 36.3384 26.3931 37.022V38.1841H56.6763V35.8599H26.3931ZM26.3931 48.7114C26.3931 48.8026 26.3931 49.1899 26.3931 49.8735V51.0356H56.6763V48.7114H26.3931ZM26.3931 61.4946C26.3931 61.6313 26.3931 62.0415 26.3931 62.7251V63.8872H56.6763V61.4946H26.3931ZM35.69 18.3599C35.69 18.451 35.69 18.8384 35.69 19.522V20.6841H38.0142V18.3599H35.69ZM31.0416 18.3599C31.0416 18.451 31.0416 18.8384 31.0416 19.522V20.6841H33.3658V18.3599H31.0416ZM26.3931 18.3599C26.3931 18.451 26.3931 18.8384 26.3931 19.522V20.6841H28.7173V18.3599H26.3931Z" fill="#E94250"/>
</svg>
