<svg width="42" height="48" viewBox="0 0 42 48" fill="none" xmlns="http://www.w3.org/2000/svg">
<path d="M40.2622 4.64062C39.5746 3.85938 38.6996 3.45312 37.6372 3.42188H34.2622V2.39062C34.2622 1.70312 34.0356 1.14062 33.5825 0.703125C33.1293 0.265625 32.5747 0.03125 31.9184 0H9.18403C8.52778 0.03125 7.97309 0.265625 7.51997 0.703125C7.06684 1.14062 6.84028 1.70312 6.84028 2.39062V3.42188H3.46528C2.40278 3.45312 1.52778 3.86719 0.840278 4.66406C0.152778 5.46094 -0.112847 6.375 0.0434028 7.40625C0.512153 10.1562 1.5434 12.6484 3.13715 14.8828C4.7309 17.1172 6.74653 18.9062 9.18403 20.25C9.62153 21.3125 10.1215 22.3125 10.684 23.25C12.4965 26.2812 14.6372 28.3125 17.1059 29.3438C17.1997 30.625 16.8872 31.7734 16.1684 32.7891C15.4497 33.8047 14.4497 34.4688 13.1684 34.7812C12.9184 34.8438 12.7153 34.9688 12.559 35.1562C12.4028 35.3438 12.3247 35.5781 12.3247 35.8594V40.9688H10.2622C9.32465 40.9688 8.5434 41.2891 7.9184 41.9297C7.2934 42.5703 6.96528 43.3594 6.93403 44.2969V46.9219C6.93403 47.2344 7.0434 47.4922 7.26215 47.6953C7.4809 47.8984 7.74653 48 8.05903 48H33.184C33.4965 48 33.7543 47.8984 33.9575 47.6953C34.1606 47.4922 34.2622 47.2344 34.2622 46.9219V44.2969C34.2309 43.3594 33.9028 42.5703 33.2778 41.9297C32.6528 41.2891 31.8715 40.9688 30.934 40.9688H28.8715V35.8594C28.8715 35.5781 28.7934 35.3438 28.6372 35.1562C28.4809 34.9688 28.2778 34.8438 28.0278 34.7812C26.7465 34.4688 25.7387 33.7969 25.0043 32.7656C24.27 31.7344 23.9653 30.5781 24.0903 29.2969C26.5278 28.2656 28.6372 26.25 30.4184 23.25C30.9809 22.3125 31.4809 21.3125 31.9184 20.25C34.3559 18.9062 36.3715 17.1172 37.9653 14.8828C39.559 12.6484 40.5903 10.1562 41.059 7.40625C41.2153 6.375 40.9497 5.45312 40.2622 4.64062ZM2.24653 7.07812C2.18403 6.70312 2.27778 6.375 2.52778 6.09375C2.77778 5.8125 3.09028 5.65625 3.46528 5.625H6.84028V7.6875C6.84028 10.9375 7.2309 13.9844 8.01215 16.8281C6.4809 15.6094 5.21528 14.1641 4.21528 12.4922C3.21528 10.8203 2.55903 9.01562 2.24653 7.07812ZM30.934 43.1719C31.2465 43.1719 31.5122 43.2812 31.7309 43.5C31.9497 43.7188 32.059 43.9844 32.059 44.2969V45.7969H9.13715V44.2969C9.1684 43.9844 9.28559 43.7188 9.48872 43.5C9.69184 43.2812 9.94965 43.1719 10.2622 43.1719H30.934ZM26.6684 36.9844C26.6684 37.1406 26.6684 37.7969 26.6684 38.9531V40.9688H14.5278V36.9844H26.6684ZM17.4809 34.7344C17.7309 34.4219 17.9809 34.0938 18.2309 33.75C18.9497 32.5938 19.3247 31.3281 19.3559 29.9531C19.7622 30.0156 20.1684 30.0469 20.5747 30.0469C20.9809 30.0469 21.4028 30.0156 21.8403 29.9531C21.8715 30.8594 22.0512 31.7188 22.3793 32.5312C22.7075 33.3438 23.1684 34.0781 23.7622 34.7344H17.4809ZM32.059 7.6875C32.059 10.4375 31.7543 13.0469 31.145 15.5156C30.5356 17.9844 29.6528 20.1875 28.4965 22.125C27.4028 23.9688 26.1762 25.375 24.8168 26.3438C23.4575 27.3125 22.0356 27.7969 20.5512 27.7969C19.0668 27.7969 17.645 27.3125 16.2856 26.3438C14.9262 25.375 13.6997 23.9688 12.6059 22.125C11.4497 20.1875 10.5668 17.9844 9.95747 15.5156C9.34809 13.0469 9.0434 10.4375 9.0434 7.6875V2.39062C9.0434 2.29688 9.09028 2.25 9.18403 2.25H31.9184C32.0122 2.25 32.059 2.29688 32.059 2.39062V7.6875ZM38.8559 7.07812C38.5434 9.01562 37.8872 10.8203 36.8872 12.4922C35.8871 14.1641 34.6215 15.6094 33.0903 16.8281C33.8715 13.9844 34.2622 10.9375 34.2622 7.6875V5.67188H37.6372C38.0122 5.67188 38.3246 5.8125 38.5747 6.09375C38.8247 6.375 38.9184 6.70312 38.8559 7.07812ZM27.2778 11.4375C27.1215 11 26.8247 10.75 26.3872 10.6875L23.059 10.1719L21.559 7.125C21.3403 6.75 21.0043 6.5625 20.5512 6.5625C20.0981 6.5625 19.7622 6.75 19.5434 7.125L18.0434 10.1719L14.7153 10.6875C14.2778 10.75 13.9887 11 13.8481 11.4375C13.7075 11.875 13.7934 12.25 14.1059 12.5625L16.4965 14.9531L15.934 18.2812C15.8715 18.7188 16.02 19.0703 16.3793 19.3359C16.7387 19.6016 17.1215 19.6406 17.5278 19.4531L20.5278 17.8594L23.5278 19.4531C23.7153 19.5156 23.9106 19.5469 24.1137 19.5469C24.3168 19.5469 24.5122 19.4844 24.6997 19.3594C25.0747 19.0781 25.2309 18.7188 25.1684 18.2812L24.6059 14.9531L26.9965 12.5625C27.309 12.25 27.4028 11.875 27.2778 11.4375ZM22.6372 13.7344C22.3559 14.0156 22.2465 14.3438 22.309 14.7188L22.5903 16.4062L21.0434 15.6094C20.8872 15.5469 20.7231 15.5156 20.5512 15.5156C20.3793 15.5156 20.1997 15.5469 20.0122 15.6094L18.5122 16.4062L18.7934 14.7188C18.8559 14.3438 18.7465 14.0156 18.4653 13.7344L17.2465 12.5625L18.934 12.2812C19.309 12.2188 19.5903 12.0156 19.7778 11.6719L20.5278 10.1719L21.3247 11.6719C21.4809 12.0156 21.7622 12.2188 22.1684 12.2812L23.8559 12.5625L22.6372 13.7344Z" fill="#E94250"/>
</svg>
